<svg viewBox="0 0 147.3 189.1" xmlns="http://www.w3.org/2000/svg">
  <path style="stroke:red;stroke-width:.11699;fill:#f0f" d="M 79.330078 6.0585938 C 79.256958 6.0691228 79.262078 6.1591349 79.267578 6.2480469 C 79.95197 10.017464 80.575305 13.890332 81.21875 17.650391 C 81.432257 18.901014 81.829019 20.118904 81.849609 21.367188 C 80.591966 21.187023 79.253152 21.453757 77.880859 21.367188 C 74.627367 17.748687 71.062043 14.281308 66.857422 11.539062 C 66.352259 11.21032 65.709901 10.844784 65.28125 10.53125 C 64.846749 10.213038 64.39407 10.030429 63.958984 9.7753906 C 62.007591 8.635908 59.909161 7.6854626 57.46875 6.9414062 C 56.794419 6.7355039 56.183189 6.4942591 55.642578 6.5644531 C 55.210183 6.6206083 54.690566 6.8471396 54.193359 7.0039062 C 53.191924 7.3186093 52.268189 7.6684427 51.357422 7.9492188 C 45.309039 9.8198888 39.474729 11.854752 33.529297 13.744141 C 33.303155 13.816675 32.984398 13.841776 32.835938 14.060547 C 34.624715 15.170782 36.564461 16.157353 38.189453 17.273438 C 38.516206 17.496888 38.865132 17.736327 39.197266 17.966797 C 39.768178 18.359883 40.608088 18.892961 41.025391 19.351562 C 41.144136 19.482591 41.278101 19.511096 41.402344 19.603516 C 43.972614 21.513963 46.302788 23.640611 48.648438 25.714844 C 48.911196 26.082192 49.389962 26.232467 49.529297 26.722656 C 48.435441 26.992902 47.619129 27.541549 46.570312 27.857422 C 42.423018 25.356175 37.587892 22.622774 31.572266 21.998047 C 30.168386 21.85181 28.469492 21.78555 27.289062 22.25 C 26.6875 22.48632 26.381778 23.018903 25.837891 23.572266 C 25.406198 24.012148 24.949298 24.462343 24.580078 24.832031 C 23.685104 25.730514 22.870145 26.614635 22.123047 27.416016 C 20.21026 29.463341 18.37403 31.436804 16.642578 33.337891 C 15.2153 34.902047 13.821076 36.497065 12.421875 37.998047 C 11.175932 39.332903 10.025329 40.683417 8.8320312 41.966797 C 8.4235022 42.40668 7.8869961 42.780265 7.6347656 43.353516 C 12.343613 43.610894 16.999347 44.153826 21.240234 44.800781 C 22.687401 45.023062 24.135441 45.173201 25.460938 45.496094 C 24.783564 46.771285 24.119408 48.058021 23.445312 49.337891 C 19.237182 49.983676 15.326878 51.043455 12.042969 52.488281 C 11.670589 52.652067 11.263735 52.807344 10.908203 52.992188 C 10.246039 53.336138 9.6069191 53.796862 8.8925781 54.251953 C 8.3029485 54.628661 7.6199756 55.07244 7.0039062 55.638672 C 6.4579139 56.138219 5.6769778 56.889253 5.5527344 57.464844 C 5.3561912 58.375026 5.6107734 59.526057 5.5527344 60.615234 C 5.5011182 61.581572 5.4414454 62.609726 5.4277344 63.511719 C 5.3637408 67.71166 5.3502406 71.860765 5.2382812 75.923828 C 5.1779593 78.067085 5.2388502 80.141583 5.1757812 82.097656 C 5.1552377 82.738761 5.0488281 83.516678 5.0488281 84.302734 L 5.0488281 86.697266 L 5.0117188 87.177734 L 5.1269531 87.144531 L 5.2011719 87.240234 C 6.8121242 84.514367 8.34677 81.742085 10.367188 79.367188 C 12.112678 77.319862 14.091009 75.378114 16.169922 73.751953 C 16.482987 73.507443 16.835043 73.214714 17.115234 73.183594 C 17.154074 73.92145 17.169934 74.397899 17.177734 75.074219 C 13.574442 78.080862 10.240575 81.66047 8.359375 86.474609 C 8.1158018 87.098166 7.6668156 88.192065 7.7285156 88.744141 C 7.7627937 89.047613 8.1696445 89.492164 8.421875 89.941406 C 9.1554023 91.245844 9.8428675 92.559928 10.5 93.720703 C 11.461658 95.418228 12.531499 97.051796 13.398438 98.570312 C 15.319413 101.93963 17.231508 105.3806 19.003906 108.46094 C 19.431154 108.09348 19.663646 107.55922 19.949219 107.07617 C 20.244034 106.5792 20.539556 106.06037 20.832031 105.56445 C 21.419321 104.57004 22.118996 103.66788 22.658203 102.66797 C 23.065913 102.28307 23.333495 101.78898 23.667969 101.3457 C 24.70918 99.96522 25.785763 98.661234 27.070312 97.564453 C 31.410642 101.49766 37.19724 103.98705 43.892578 105.56641 C 39.169692 107.78922 35.434448 110.55944 32.238281 114.07031 C 31.75289 114.60261 31.227775 115.32318 30.789062 115.83594 C 30.595796 116.06115 30.498069 116.25321 30.349609 116.46484 C 29.644159 117.46745 28.785835 118.54538 28.332031 119.67773 C 28.306064 119.74373 28.227621 119.70429 28.207031 119.74219 C 27.28281 121.40579 26.532133 123.15122 25.875 125.03125 C 25.103802 127.23768 24.510264 129.47919 24.111328 131.96289 C 23.536907 135.54044 23.454184 139.30657 23.734375 142.73438 C 24.084175 147.00919 25.397219 150.77744 26.757812 154.07422 C 27.03426 154.74574 27.387837 155.3796 27.703125 156.02539 C 28.993525 158.6717 30.435536 161.04478 32.048828 163.27344 C 36.634836 169.6026 42.724114 174.80565 50.066406 178.38672 C 50.388597 178.54489 50.733112 178.6737 51.072266 178.82812 C 51.725071 179.13019 52.350008 179.50526 53.025391 179.77539 C 55.137061 180.62006 57.30618 181.33926 59.578125 181.91602 C 61.449965 182.39111 63.65945 182.88211 65.554688 183.11328 C 68.584728 183.48074 72.013184 183.68836 75.195312 183.36523 C 76.996959 183.18378 78.741125 183.14105 80.425781 182.86133 C 85.304264 182.05175 89.748784 180.6324 93.65625 178.76758 C 97.891288 176.74131 101.86877 174.35605 105.12109 171.46289 C 105.37847 171.23207 105.68099 171.05521 105.94141 170.83398 C 108.74917 168.43569 111.31039 165.50988 113.5332 162.10547 C 113.78356 161.76959 114.08258 161.36686 114.28906 161.09766 C 114.34993 161.01729 114.36712 160.9157 114.41602 160.8457 C 117.09626 156.9979 119.38002 152.62779 120.96875 147.80078 C 122.86165 142.05657 123.95496 135.02394 123.42383 127.45703 C 122.92779 120.36509 121.36351 114.10707 118.95117 108.80859 C 112.98468 95.705711 102.52505 86.577958 89.597656 80.462891 C 87.003988 79.235666 84.26042 78.094181 81.408203 77.123047 C 80.018362 76.648887 78.536079 76.244057 77 75.800781 C 73.897425 74.904638 70.913743 74.36922 68.179688 73.027344 C 67.012127 72.454093 65.264006 71.351147 65.091797 70.318359 C 65.057517 70.110468 65.072147 69.668493 65.091797 69.5625 C 65.222826 68.844181 66.597743 67.591141 67.296875 67.294922 C 68.142713 66.935295 69.338201 66.753181 70.447266 66.601562 C 74.050558 66.106577 78.007978 66.548082 81.345703 66.916016 C 88.493792 67.703358 94.905045 69.061142 101.12891 70.570312 C 106.65318 71.909848 112.05778 73.367672 117.13281 75.042969 C 117.88622 75.292041 118.62802 75.649795 119.40039 75.734375 C 120.50326 73.410954 123.31906 68.507226 121.41797 65.845703 C 120.8997 65.121535 120.41203 64.981859 119.46289 64.648438 C 118.98662 64.481141 118.46896 64.246204 118.01562 64.080078 C 112.10529 61.913423 106.25212 59.78401 100.56055 57.716797 C 99.584856 57.362317 98.572408 57.053114 97.662109 56.583984 C 97.768102 56.094966 98.078562 55.691072 98.291016 55.261719 C 98.507214 54.826516 98.622957 54.323675 98.986328 54.001953 C 105.21254 55.407003 111.41133 57.352279 116.49805 59.859375 C 118.25758 60.726271 119.90762 61.637048 121.41211 62.757812 C 122.21467 63.355631 123.08588 64.243402 123.74219 64.962891 C 124.66057 65.972515 125.61508 67.462137 125.75781 68.867188 C 126.00934 71.355564 124.77422 73.363383 123.61719 74.349609 C 123.51306 74.438755 123.46113 74.577253 123.36523 74.664062 C 123.17219 74.837793 122.98055 75.001141 122.79688 75.167969 C 122.41899 75.509813 121.87052 75.796959 121.79102 76.240234 C 132.19026 76.40051 138.92032 73.044555 141.70117 65.654297 C 142.34227 63.947413 142.75947 62.131321 142.58398 59.859375 C 142.35 56.818805 141.36514 53.933787 140.37891 51.734375 C 140.02092 50.936503 139.59695 50.162888 139.18164 49.466797 C 136.28262 44.591824 132.59028 40.875332 128.2207 37.369141 C 126.00374 35.588554 123.57183 33.903594 121.22852 32.330078 C 121.12662 32.259884 121.01467 32.142852 120.91406 32.076172 C 120.66043 31.912386 120.34282 31.853646 120.09375 31.699219 C 120.04575 31.671142 120.07155 31.542526 120.03125 31.509766 C 119.97779 31.464146 119.8296 31.482366 119.7793 31.447266 C 118.96856 30.882204 118.09929 30.350753 117.25977 29.871094 C 113.94427 27.981706 110.22232 26.002856 106.54883 24.455078 C 105.98869 24.218759 105.21549 23.971023 104.97461 23.697266 C 104.7804 23.479665 104.71231 23.027733 104.5332 22.564453 C 104.08969 21.421461 103.54831 20.132631 103.14844 19.099609 C 102.86965 18.377781 102.45275 17.644436 102.14062 16.894531 C 101.8093 16.100168 101.50475 15.314855 101.19531 14.626953 C 100.24769 12.524643 99.214326 10.201701 97.982422 8.2011719 C 97.588165 7.5588968 96.886026 6.6744237 96.40625 6.5644531 C 95.815451 6.4287441 95.031937 6.531587 94.328125 6.5 C 89.325633 6.2730394 84.148896 6.22004 79.330078 6.0585938 z M 71.875 111.99219 C 79.499107 112.10748 85.14655 115.81416 88.65625 120.27148 C 88.881572 120.55798 89.091799 120.90318 89.347656 121.2793 C 89.383336 121.3318 89.449843 121.2541 89.472656 121.3418 C 89.532086 121.56256 89.877347 121.95869 90.041016 122.22461 C 90.326589 122.6921 90.618601 123.22169 90.923828 123.73633 C 90.944418 123.77013 90.894108 123.89969 90.923828 123.92578 C 91.297143 124.25346 91.652394 125.32242 91.867188 125.87695 C 92.579189 127.71252 93.201756 130.12949 93.316406 132.55469 C 93.653688 139.62322 90.990237 144.80517 87.521484 148.56055 C 84.947704 151.34725 81.619794 153.61177 77.378906 154.79688 C 75.972687 155.18856 74.385074 155.49357 72.716797 155.55078 C 66.003911 155.78242 60.444872 153.37213 56.712891 149.82031 C 52.874449 146.16554 50.255347 141.72071 49.720703 135.01953 C 49.304803 129.81464 51.039347 125.21507 53.058594 122.10547 C 56.167019 117.31941 60.88579 113.52445 67.740234 112.27734 C 68.60713 112.11964 69.456154 112.06739 70.324219 112.02539 L 70.322266 112.01758 C 70.848062 111.9925 71.366726 111.9845 71.875 111.99219 z"/>
  <path fill-rule="evenodd" fill="#231f20" d="m 84.355923,10.503438 h 2.078912 c 1.927996,3.194997 3.62552,6.621634 5.606161,9.765155 -0.08903,-2.903692 -0.26042,-6.3198 -0.378345,-9.260928 1.030564,0.0117 2.343309,-0.03627 3.087366,0.06317 0.790618,1.045891 1.209676,2.34097 1.701034,3.590423 0.493581,1.255303 1.045072,2.494227 1.511511,3.779947 0.474277,1.306779 0.870523,2.649824 1.323157,3.969471 0.449242,1.304439 0.890291,2.611217 1.323161,3.905126 4.26779,1.383992 8.51921,3.300288 12.41263,5.354633 7.595,4.011587 14.41317,9.133409 19.65432,15.875543 0.62707,0.807231 1.20266,1.711563 1.89056,2.581969 1.27987,1.623821 2.44158,3.384521 3.21255,5.607331 0.64812,1.874179 1.05876,4.09231 0.63057,6.42626 -0.13687,0.741717 -0.25035,1.28689 -0.50539,1.889389 -0.66217,1.574685 -1.8578,3.1599 -3.0862,4.220999 -1.50215,1.297419 -3.20318,2.390106 -5.1031,3.212545 1.22956,-5.209564 -2.16549,-8.756701 -4.85041,-11.025137 -1.82387,-1.539589 -3.70975,-2.730547 -5.92203,-3.905126 -0.72429,-0.383728 -1.40973,-0.796702 -2.14209,-1.133634 -6.11507,-2.818289 -13.12628,-4.630464 -20.473248,-5.669335 -1.428448,2.562081 -2.730547,5.249341 -4.031476,7.936602 0.306163,0.446901 0.993947,0.556872 1.448337,0.8201 0.285572,0.164955 0.938142,0.283115 1.196807,0.566231 1.694016,0.496038 3.327196,1.299759 5.10193,1.953733 3.36581,1.237754 6.85211,2.495397 10.33139,3.778777 0.83859,0.310024 1.72092,0.646955 2.58314,0.945279 0.88421,0.305929 1.87652,0.491007 2.58314,0.881754 0.35963,0.20017 1.16171,0.890177 1.38516,1.259982 0.53149,0.877425 0.54155,2.541023 0,3.653598 -1.27402,-0.747215 -2.83233,-1.309118 -4.5357,-1.827384 -0.58717,-0.178176 -1.21319,-0.21339 -1.82738,-0.377878 -2.70247,-0.724285 -5.75006,-1.678806 -8.50284,-2.393615 -4.639822,-1.204997 -9.587329,-2.328101 -14.296176,-3.149371 -4.612916,-0.803721 -10.461246,-1.86482 -15.817048,-1.51268 -2.646314,0.174315 -5.188507,0.591969 -7.182016,1.575855 -1.391011,0.686731 -2.69311,1.75485 -3.4009,3.149371 -1.964257,3.879961 1.59909,7.797195 4.787231,9.449282 1.467055,0.743939 2.92592,1.28572 4.473698,1.764209 1.577025,0.488082 3.226584,0.796468 4.976754,1.196808 1.897578,0.43415 3.967131,1.389841 5.795685,2.140917 3.028871,1.247113 5.991058,2.860405 8.694697,4.410523 0.570326,0.326753 1.143811,0.602381 1.701034,0.945981 1.568836,0.967975 3.28274,1.981811 4.849236,3.023022 1.06613,0.708374 2.014568,1.541928 2.961017,2.33044 0.963298,0.803371 1.908108,1.599254 2.834668,2.394786 1.51151,1.595743 3.05578,3.087366 4.47253,4.724056 1.4226,1.642543 2.65918,3.458233 3.90629,5.292633 2.48019,3.64775 4.42457,7.82429 5.85886,12.54133 1.09772,3.60914 1.65892,7.49906 1.70104,11.96807 0.0151,1.50917 0.086,3.02069 0.0631,4.53571 -0.0859,5.63891 -1.49396,10.91282 -3.14937,15.24379 -1.68582,4.41287 -3.91214,8.33788 -6.61461,11.7809 -0.35507,0.45286 -0.63842,0.9117 -1.00775,1.32315 -2.49423,2.77618 -5.42483,5.18851 -8.630355,7.43355 -2.629935,1.84142 -5.629559,3.58457 -8.883051,4.91475 -1.08438,0.44234 -2.158465,0.95241 -3.27572,1.32198 -4.659711,1.53959 -9.973397,2.54103 -16.062727,2.33161 -7.442903,-0.25726 -14.576954,-2.69895 -19.911698,-5.4178 -0.367933,-0.18824 -0.742652,-0.35097 -1.133399,-0.56846 -1.013133,-0.55933 -2.288324,-1.20382 -3.27572,-1.88938 -2.245038,-1.55714 -4.287683,-3.35996 -6.236737,-5.29029 -1.857801,-1.84143 -3.648918,-4.0268 -5.166278,-6.30108 -3.671146,-5.50555 -6.557289,-12.02658 -6.677789,-20.91782 -0.06984,-5.15575 1.231905,-9.65167 2.771493,-13.36025 1.760699,-4.23036 4.340329,-7.97872 7.496719,-10.89879 1.157031,-1.07163 2.487208,-2.07073 3.906296,-2.96102 4.531023,-2.8452 10.88709,-4.7767 18.648206,-4.15782 4.353198,0.34722 8.124956,1.23307 11.909582,2.26726 -0.386184,0.31985 -0.922232,0.18871 -1.323157,0.18871 -5.14288,0 -9.203603,1.22254 -12.599823,3.14937 -0.683221,0.3884 -1.496302,0.95183 -2.205261,1.44833 -0.845487,0.5942 -1.671787,1.27052 -2.45679,2.01691 -1.731452,1.64371 -3.372822,3.52374 -4.663222,5.73251 -0.731187,1.25179 -1.362933,2.62526 -1.889388,4.09465 -1.035128,2.88614 -1.830894,6.47774 -1.448336,10.58409 0.170454,1.82387 0.500483,3.63254 1.007752,5.22711 0.999796,3.14352 2.372557,5.78282 4.284173,8.1893 3.666467,4.62111 8.980153,8.17526 15.746854,9.19892 4.029136,0.60823 7.972869,0.23164 11.085973,-0.75727 3.03589,-0.96236 5.705602,-2.29418 8.000946,-4.09465 1.199147,-0.93815 2.352669,-2.02744 3.402069,-3.21255 0.122489,-0.13793 0.322191,-0.2376 0.441052,-0.37788 1.716244,-2.01573 3.28157,-4.53687 4.346179,-7.30719 0.422685,-1.09865 0.702876,-2.3047 1.009039,-3.6536 0.08915,-0.39659 0.250007,-0.81296 0.314001,-1.19798 0.06528,-0.38981 0.01965,-0.77693 0.06399,-1.13375 0.04013,-0.32265 0.15899,-0.61057 0.188705,-0.94504 0.07534,-0.82396 0,-1.6636 0,-2.45679 0,-0.82946 0.05569,-1.66126 0,-2.45562 -0.398936,-5.68455 -2.464979,-10.14771 -5.039929,-13.86332 -2.618236,-3.77643 -6.108048,-6.59706 -9.82716,-9.0714 -0.919541,-0.61151 -1.970112,-1.20968 -3.024191,-1.70104 -3.131823,-1.45886 -6.753833,-2.77383 -10.64726,-3.52607 -4.065403,-0.78735 -8.208019,-1.12779 -13.161375,-1.00904 -1.428448,0.0343 -2.867425,0.30756 -4.347349,0.3154 -2.555061,0.0137 -4.979094,-0.47392 -7.182016,-1.00775 -6.524532,-1.581709 -11.46736,-4.777876 -14.74074,-9.701985 -2.033286,-0.02153 -3.50853,0.812496 -4.724056,1.701035 -2.052005,1.499812 -3.530758,3.816214 -4.663221,6.299911 -0.450178,-0.952766 -0.99851,-1.821534 -1.511511,-2.834667 -0.157703,-0.313066 -0.425025,-0.760903 -0.440936,-1.008571 -0.02199,-0.328157 0.258197,-0.897079 0.440936,-1.386332 1.092218,-2.91773 2.742245,-6.130276 4.09465,-8.567177 -0.792841,-0.474395 -1.727943,-0.196543 -2.45679,0 -2.215791,0.597234 -3.910976,2.118689 -5.482152,3.212545 -0.204732,-0.17724 -0.374719,-0.46059 -0.50411,-0.692347 -0.135708,-0.246732 -0.347343,-0.570326 -0.377058,-0.819281 -0.06856,-0.559914 0.328976,-1.39569 0.566699,-1.952563 0.723466,-1.694015 1.919806,-3.289759 3.024192,-4.472527 0.41122,-0.441989 0.774591,-0.930071 1.195638,-1.323157 1.241263,-1.156213 2.732886,-2.371388 4.09465,-3.40207 -0.589513,-2.488377 -0.596299,-5.781645 -0.440936,-8.505173 -2.271946,-0.92773 -4.516984,0.235267 -5.984038,1.196808 -2.131558,1.398031 -4.030306,3.501511 -5.5429865,5.417807 0.1064726,-0.894389 -0.2262587,-1.963092 0,-3.024191 0.093674,-0.440117 0.6708205,-1.133283 1.0706925,-1.701035 0.281946,-0.399872 0.567635,-0.799744 0.881988,-1.195638 0.834957,-1.053261 1.781757,-2.307043 2.708318,-3.338894 1.811005,-2.018078 3.737831,-3.771758 5.922034,-4.976755 -2.090611,-1.090347 -5.909165,-0.683222 -8.314479,0 -0.698314,0.198883 -1.29274,0.535814 -1.889389,0.566232 0.420462,-1.568836 1.809835,-2.486038 3.086196,-3.274551 3.86301,-2.387765 9.084274,-3.756548 14.237683,-4.851575 0.59314,-1.422598 0.965636,-2.790211 1.827384,-4.472528 0.461643,-0.900823 1.089996,-2.005208 1.764209,-2.959847 0.04212,-0.05966 0.07862,-0.03042 0.125765,-0.127519 0.09687,-0.198883 0.505864,-0.483168 0.503525,-0.81776 -0.0022,-0.708959 -0.999446,-0.889124 -1.321987,-1.323157 -3.955432,-1.463545 -8.833915,-2.002868 -13.863315,-2.394785 0.1873,-0.46328 0.586236,-0.714809 0.945045,-1.007284 0.870522,-1.018983 1.834403,-1.945544 2.834667,-2.834668 4.140277,-0.57793 9.706661,-0.886784 13.10288,0.567402 -0.401158,-2.205262 -1.053378,-4.046684 -2.205261,-5.544156 -0.556638,-0.725338 -1.376972,-1.512681 -2.204092,-2.078912 -0.334591,-0.228131 -0.710597,-0.382558 -1.00857,-0.692581 0.597233,-0.601329 1.219035,-1.17575 1.764209,-1.827384 0.468428,-0.253868 1.371123,-0.321723 2.205261,-0.251529 1.492793,0.12401 2.915391,0.70311 4.284174,1.195638 3.868859,1.395691 7.773986,3.457055 11.085972,5.229453 2.771494,-2.09997 6.120917,-3.62201 10.016684,-4.598877 -0.685444,-1.007284 -1.39803,-1.963092 -2.205261,-2.897842 -0.252816,-0.291305 -0.562137,-0.535814 -0.819398,-0.81776 -0.946917,-1.042381 -1.867161,-1.960752 -2.897843,-2.962187 -0.07078,-0.06785 -0.109619,-0.176655 -0.18964,-0.252698 -1.720923,-1.613292 -3.784627,-3.184468 -5.85886,-4.535703 -0.176888,-0.11465 -0.314001,-0.256208 -0.503641,-0.376707 -0.453805,-0.287796 -1.071629,-0.545174 -1.448337,-1.008454 1.419089,-0.450412 2.909542,-0.827119 4.283004,-1.323157 4.182393,1.595744 7.818442,3.792816 10.772439,6.677789 0.183675,0.178995 0.423621,0.369689 0.503525,0.630576 0.541547,0.340441 0.744057,1.020153 1.259983,1.386332 -0.502706,-4.473698 -1.771229,-8.182281 -4.283004,-10.64726 -0.208944,-0.05148 -0.535697,-0.221111 -0.441053,-0.377878 0.511832,-0.04563 0.990789,-0.362669 1.448337,-0.379047 1.067065,-0.03744 2.239188,0.531134 3.212545,0.945279 1.012198,0.431693 2.006379,0.914862 2.771493,1.386331 1.210847,0.746396 2.497737,1.685826 3.653598,2.583139 0.763126,0.59314 1.448336,1.241264 2.205261,1.889389 0.46527,0.397766 0.911703,0.836478 1.386332,1.259982 0.569858,0.510077 1.242434,1.110235 1.826214,1.701035 0.748619,0.758095 1.722093,1.716243 2.583139,2.646314 0.314001,0.338101 1.113745,1.40154 1.512681,1.51151 0.315288,0.08774 0.968794,0.02223 1.448336,0 3.180958,-0.150917 6.370105,-0.193033 9.574461,-0.441052 -0.895792,-4.815308 -1.994679,-9.428224 -2.834667,-14.296178 -0.127987,0.01989 0.01228,-0.181334 0.06259,-0.188354" style="fill:#0ff;stroke-width:.11699"/>
  <path d="m 5.1487795,86.790628 c 0.00228,-0.042 0.011424,-0.08447 0.020567,-0.126583" stroke="#231f20" stroke-linecap="round" stroke-width="0.853947" fill="none"/>
  <path fill-rule="evenodd" fill="#231f20" d="m 101.62482,21.01885 c -1.18043,-2.945808 -2.409997,-5.744209 -3.715605,-8.440828 -0.658069,-1.359424 -1.28689,-2.7527752 -2.205262,-3.9062966 -4.44679,-0.2971546 -9.298365,-0.2398295 -13.92181,-0.5042269 -0.07675,-0.018718 -0.217016,0.1825044 -0.06306,0.1883539 0.815772,5.0656666 1.834404,9.9266016 2.58314,15.0566126 -2.475509,0.0023 -4.982604,-0.02691 -7.37154,0.062 C 71.901285,17.766528 66.250668,12.48209 58.469663,9.4239711 58.173561,9.308151 57.886936,9.2707142 57.587675,9.1724426 56.953355,8.9642004 56.301955,8.6424779 55.823466,8.6682157 c -0.307567,0.017549 -0.669534,0.245679 -1.070809,0.3778777 -0.36419,0.1193298 -0.786875,0.2655673 -1.134219,0.3778777 -5.011851,1.6203119 -9.884485,3.2347739 -14.682245,4.7872309 -0.355064,0.11582 -0.827119,0.09125 -1.071628,0.441052 5.440035,3.466414 10.348935,7.786855 14.799235,12.155261 0.28335,0.277266 0.779153,0.566232 0.75634,0.945279 -2.700129,0.449242 -4.742774,1.555967 -6.992492,2.45679 -1.295079,-0.706619 -2.503586,-1.608612 -3.841951,-2.33044 -1.338366,-0.721829 -2.769154,-1.323157 -4.21983,-1.953733 -2.866255,-1.243604 -6.269494,-2.267267 -10.268212,-1.76421 -2.822969,2.765644 -5.400258,5.769947 -8.127295,8.631523 -1.358254,1.426108 -2.721188,2.876784 -4.031476,4.346178 -1.329006,1.490453 -2.677901,2.945808 -3.968301,4.472528 2.791382,0.252698 5.706773,0.644615 8.567178,1.009624 1.40973,0.178994 2.840517,0.377877 4.219829,0.628236 1.373463,0.250358 2.753945,0.448071 4.031476,0.8201 -1.40037,2.253227 -2.803081,4.502945 -3.841952,7.118841 -6.127936,0.996755 -11.722398,2.300024 -15.8170478,5.354632 -0.5324215,0.398936 -1.3992004,1.111405 -1.5115108,1.574686 -0.1658918,0.683221 -0.063069,1.739641 -0.063069,2.645144 0,6.242586 -0.3450035,12.51793 -0.315288,18.706701 0.5475132,-0.377059 0.7906184,-1.057941 1.2599823,-1.512681 0.1471734,-0.245328 0.3916825,-0.43181 0.5666995,-0.629172 0.1850782,-0.210231 0.2993774,-0.469832 0.4410523,-0.629757 0.027422,-0.03206 0.1608613,0.031 0.1882369,0 0.082256,-0.09371 0.1073968,-0.279723 0.1896408,-0.377995 0.1073968,-0.129274 0.2102308,-0.202393 0.3152878,-0.315288 1.009975,-1.083093 2.040306,-2.066043 3.150541,-3.024192 0.877425,-0.757159 1.789947,-1.464714 2.771493,-2.140917 0.973474,-0.672692 1.970111,-1.413239 3.149371,-1.827383 -0.0068,2.248547 -0.122021,4.404673 0,6.614614 -3.51438,2.655673 -6.711717,6.051893 -8.630353,10.331387 -0.256793,0.573485 -0.7311869,1.539589 -0.6932822,2.015738 0.012342,0.159106 0.1073962,0.265099 0.2522302,0.50411 0.340441,0.563073 0.787343,1.272851 1.007635,1.701034 0.04798,0.09371 0.08134,0.173614 0.125647,0.251412 2.605367,4.581328 5.210735,9.01057 7.686243,13.477246 0.439649,-0.3071 0.66813,-0.83262 0.944577,-1.25998 0.892517,-1.37229 1.782928,-2.6042 2.772663,-3.841952 1.297419,-1.624991 2.598348,-3.345914 4.597707,-4.284174 4.263116,4.32629 10.167601,7.029926 17.139035,8.567176 2.066044,0.45696 4.322781,0.7092 6.614615,0.88199 0.29926,0.0228 0.671757,0.009 0.945045,0.18964 -2.873274,1.10134 -5.61903,2.0485 -8.126125,3.27572 -7.696772,3.76708 -13.208171,9.58148 -16.191416,18.07496 -1.953733,5.56755 -2.865085,13.61763 -1.386332,20.09888 1.050103,4.60121 2.81244,8.70171 4.91358,12.22545 1.778248,2.98091 3.790476,5.72783 6.110388,8.12613 0.484456,0.50083 0.900238,1.05197 1.385162,1.51151 5.854179,5.53363 13.079482,10.08571 22.11111,12.15526 4.700658,1.07759 10.113785,1.72911 15.618165,1.1334 1.705714,-0.18461 3.427807,-0.30979 5.103103,-0.63023 0.757628,-0.14389 1.513851,-0.38524 2.268436,-0.56623 3.923845,-0.94411 7.252211,-2.29534 10.456567,-3.84195 2.56793,-1.24009 4.884332,-2.75043 7.055667,-4.34735 0.69457,-0.51277 1.41207,-1.00869 2.01691,-1.51268 0.66263,-0.55348 1.29391,-1.15258 1.88939,-1.69986 0.76546,-0.70569 1.48343,-1.34656 2.20526,-2.08009 2.84051,-2.89082 5.29379,-6.18409 7.37037,-9.76398 4.12623,-7.11767 7.14224,-16.50729 6.55261,-27.52775 -0.39215,-7.30836 -1.80984,-13.23157 -4.159,-18.7067 -2.26609,-5.28327 -5.34878,-9.85407 -9.0714,-13.79312 C 104.47152,92.387664 100.26339,88.847546 95.556885,86.023408 90.8223,83.18289 85.547221,80.72844 79.868526,78.841391 79.525745,78.728613 79.203555,78.564008 78.860774,78.463514 77.721525,78.129858 76.650833,77.813166 75.52071,77.518469 74.006859,77.124563 72.462591,76.823782 70.985007,76.322831 68.225213,75.383752 65.45138,74.424083 63.677812,72.163836 c -0.455559,-0.806529 -0.932293,-1.781757 -0.630693,-3.023021 0.130327,-0.533826 0.588694,-1.203827 0.819398,-1.575856 0.489018,-0.786055 1.387501,-1.456525 2.142087,-1.890558 1.393351,-0.796702 3.454714,-1.016643 5.291457,-1.196808 4.198771,-0.411805 8.43264,0.11816 12.096766,0.630576 6.333839,0.885615 12.155261,2.044986 18.016463,3.4009 5.82727,1.347724 11.56329,3.142351 16.88165,4.7884 0.32313,-0.62613 0.61923,-1.297419 0.88199,-1.952563 0.21351,-0.534644 0.35647,-0.9048 0.50364,-1.51268 0.22299,-0.919893 0.45697,-2.555062 -0.18964,-3.024192 -0.11652,-0.08458 -0.29341,-0.06399 -0.44105,-0.125647 -0.25679,-0.108333 -0.56436,-0.157703 -0.81799,-0.251412 -3.60564,-1.334856 -7.64413,-2.846366 -10.96197,-4.031475 -1.84493,-0.660994 -3.65242,-1.350065 -5.48098,-2.016908 -1.821532,-0.664503 -3.641896,-1.378142 -5.542984,-1.952563 -0.382557,-0.35331 -1.14346,-0.326402 -1.512681,-0.693751 1.02729,-2.037965 1.974792,-4.156654 3.087366,-6.109217 6.518679,1.506831 13.453849,3.423127 19.151259,6.172392 1.94321,0.93943 3.71444,1.926825 5.35464,3.149371 2.1491,1.603933 4.27247,3.666466 5.1031,6.237907 0.57325,1.773568 0.35916,3.827912 -0.18835,5.292627 -0.19772,0.526455 -0.49253,0.99617 -0.63175,1.512681 3.79399,-0.449125 6.85912,-1.515021 9.26093,-3.528418 1.6285,-1.364104 3.18915,-3.457055 3.96947,-5.670506 0.28312,-0.802551 0.55219,-1.727942 0.62941,-2.581969 0.23632,-2.562081 -0.18017,-4.515814 -0.75459,-6.363086 -1.78527,-5.73251 -5.22828,-9.753456 -8.88305,-13.418753 -0.74055,-0.741717 -1.54661,-1.468225 -2.33044,-2.142087 -4.39298,-3.774097 -9.54755,-7.124691 -14.61205,-9.890335 -3.37867,-1.841422 -6.95389,-3.575214 -10.58409,-5.039929 -0.47065,-1.485773 -1.12415,-2.907201 -1.70103,-4.346178 z M 5.049572,86.697036 v -2.393615 c 0,-0.786056 0.1051038,-1.564157 0.1256473,-2.205262 0.063069,-1.956073 0.00366,-4.030305 0.063982,-6.173562 0.1119594,-4.063063 0.1247113,-8.212698 0.1887049,-12.412639 0.013711,-0.901993 0.074031,-1.930335 0.1256472,-2.896673 0.058039,-1.089177 -0.1965432,-2.240358 0,-3.15054 0.1242434,-0.575591 0.9035138,-1.326667 1.4495061,-1.826214 0.6160694,-0.566232 1.2997589,-1.009624 1.8893885,-1.386332 0.714341,-0.455091 1.353574,-0.916031 2.015738,-1.259982 0.355532,-0.184844 0.762306,-0.340441 1.134686,-0.504227 3.283909,-1.444826 7.193715,-2.503586 11.401845,-3.149371 0.674096,-1.27987 1.339535,-2.56793 2.016908,-3.843121 -1.325497,-0.322893 -2.773833,-0.47147 -4.221,-0.693751 C 16.999738,44.154792 12.343536,43.610789 7.6346883,43.353411 7.8869188,42.78016 8.422967,42.406962 8.831496,41.967079 c 1.193298,-1.28338 2.34448,-2.633444 3.590423,-3.9683 1.399201,-1.500982 2.792551,-3.096726 4.219829,-4.660882 1.731452,-1.901087 3.568195,-3.874709 5.480982,-5.922034 0.747098,-0.801381 1.561816,-1.684656 2.45679,-2.583139 0.36922,-0.369688 0.827119,-0.8201 1.258812,-1.259982 0.543887,-0.553363 0.849114,-1.086837 1.450676,-1.323157 1.180429,-0.46445 2.879124,-0.397766 4.283004,-0.251529 6.015626,0.624727 10.850823,3.357613 14.998118,5.85886 1.048816,-0.315873 1.865991,-0.864557 2.959847,-1.134803 -0.139335,-0.490189 -0.619228,-0.639936 -0.881987,-1.007284 -2.34565,-2.074233 -4.674921,-4.201111 -7.245191,-6.111558 -0.124243,-0.09242 -0.259133,-0.1205 -0.377878,-0.251528 -0.417303,-0.458601 -1.256472,-0.992076 -1.827384,-1.385162 -0.332134,-0.23047 -0.680881,-0.4703 -1.007634,-0.693751 -1.624992,-1.116084 -3.565856,-2.10231 -5.354633,-3.212545 0.148461,-0.218771 0.467024,-0.243339 0.693166,-0.315873 5.945432,-1.889389 11.780893,-3.9250147 17.829276,-5.7956848 0.910767,-0.280776 1.834403,-0.6294062 2.835838,-0.9441093 0.497207,-0.1567666 1.015941,-0.3848971 1.448336,-0.4410523 0.540611,-0.070194 1.153053,0.1719753 1.827384,0.3778777 2.440411,0.7440564 4.538042,1.6951851 6.489435,2.8346677 0.435086,0.255038 0.887486,0.437543 1.321987,0.755755 0.428651,0.313534 1.070692,0.678542 1.575855,1.007284 4.204621,2.742246 7.771646,6.20983 11.025138,9.82833 1.372293,0.08657 2.709488,-0.180164 3.967131,0 -0.02059,-1.248283 -0.415783,-2.466149 -0.62929,-3.716772 -0.643445,-3.760059 -1.268171,-7.633598 -1.952563,-11.4030154 -0.0055,-0.088912 -0.01006,-0.1778248 0.06306,-0.1883539 4.818818,0.1614462 9.995626,0.2140917 14.998118,0.4410523 0.703812,0.031587 1.488113,-0.072534 2.078912,0.063175 0.479776,0.1099706 1.180429,0.9955849 1.574686,1.63786 1.231904,2.000529 2.266091,4.32278 3.213711,6.42509 0.30944,0.687902 0.61338,1.474074 0.9447,2.268437 0.31213,0.749905 0.72884,1.483433 1.00763,2.205261 0.39987,1.033022 0.94282,2.321082 1.38633,3.464074 0.17911,0.46328 0.24673,0.916032 0.44094,1.133633 0.24088,0.273757 1.01454,0.520606 1.57468,0.756925 3.67349,1.547778 7.39377,3.527249 10.70927,5.416637 0.83952,0.479659 1.70922,1.010794 2.51996,1.575856 0.0503,0.0351 0.19877,0.01755 0.25223,0.06317 0.0403,0.03276 0.0151,0.160277 0.0631,0.188354 0.24907,0.154427 0.5653,0.214092 0.81893,0.377878 0.10061,0.06668 0.21257,0.182504 0.31447,0.252698 2.34331,1.573516 4.77553,3.259342 6.99249,5.039929 4.36958,3.506191 8.06178,7.221793 10.9608,12.096766 0.41531,0.696091 0.83998,1.469395 1.19797,2.267267 0.98623,2.199412 1.97011,5.085555 2.20409,8.126125 0.17549,2.271946 -0.23983,4.088801 -0.88093,5.795685 -2.78085,7.390258 -9.51246,10.744361 -19.9117,10.584085 0.0795,-0.443275 0.62941,-0.729784 1.00729,-1.071628 0.18367,-0.166828 0.37436,-0.329912 0.5674,-0.503642 0.0959,-0.08681 0.1474,-0.226142 0.25153,-0.315288 1.15703,-0.986226 2.39361,-2.992605 2.14208,-5.480982 -0.14273,-1.40505 -1.09736,-2.895502 -2.01574,-3.905126 -0.65631,-0.719489 -1.52788,-1.606273 -2.33044,-2.204092 -1.50449,-1.120764 -3.15405,-2.032116 -4.91358,-2.899012 -5.08672,-2.507096 -11.28719,-4.452639 -17.513397,-5.857689 -0.363371,0.321722 -0.477553,0.824779 -0.693751,1.259982 -0.212454,0.429353 -0.523296,0.832969 -0.629289,1.321987 0.910299,0.46913 1.922146,0.779153 2.897837,1.133633 5.69157,2.067213 11.54458,4.196431 17.45491,6.363086 0.45334,0.166126 0.97207,0.400106 1.44834,0.567402 0.94914,0.333421 1.43546,0.472639 1.95373,1.196807 1.90109,2.661523 -0.91404,7.566914 -2.01691,9.890335 -0.77237,-0.08458 -1.51385,-0.443275 -2.26726,-0.692347 -5.07503,-1.675297 -10.47997,-3.132992 -16.00424,-4.472528 -6.223861,-1.509171 -12.634913,-2.866255 -19.783002,-3.653597 -3.337725,-0.367934 -7.295497,-0.810273 -10.898789,-0.315288 -1.109065,0.151619 -2.303533,0.333538 -3.149371,0.693165 -0.699132,0.296219 -2.074232,1.550118 -2.205261,2.268437 -0.01965,0.105993 -0.03428,0.547045 0,0.754936 0.172209,1.032788 1.919806,2.136237 3.087366,2.709488 2.734056,1.341876 5.717301,1.87652 8.819876,2.772663 1.536079,0.443276 3.018342,0.848997 4.408183,1.323157 2.852217,0.971134 5.596802,2.11167 8.19047,3.338895 12.927398,6.115067 23.386298,15.243797 29.352788,28.34668 2.41234,5.29848 3.97649,11.55627 4.47253,18.64821 0.53113,7.56691 -0.56272,14.60035 -2.45562,20.34456 -1.58873,4.82701 -3.87237,9.19658 -6.55261,13.04438 -0.0489,0.07 -0.0649,0.17186 -0.12577,0.25223 -0.20648,0.2692 -0.50586,0.67176 -0.75622,1.00764 -2.22281,3.40441 -4.78489,6.32916 -7.59265,8.72745 -0.26042,0.22123 -0.56202,0.39894 -0.8194,0.62976 -3.25232,2.89316 -7.229978,5.27742 -11.465016,7.30369 -3.907466,1.86482 -8.353086,3.28507 -13.231569,4.09465 -1.684656,0.27972 -3.427807,0.32172 -5.229453,0.50317 -3.182128,0.32313 -6.609935,0.11698 -9.639976,-0.25048 -1.895238,-0.23117 -4.106349,-0.72288 -5.978189,-1.19797 -2.271945,-0.57676 -4.43977,-1.29625 -6.55144,-2.14092 -0.675383,-0.27013 -1.299758,-0.64438 -1.952563,-0.94645 -0.339154,-0.15443 -0.685561,-0.28288 -1.007752,-0.44105 -7.342292,-3.58107 -13.430452,-8.78595 -18.01646,-15.11511 -1.613292,-2.22866 -3.055778,-4.60005 -4.346178,-7.24636 -0.315288,-0.64579 -0.668598,-1.28104 -0.945045,-1.95256 -1.360594,-3.29678 -2.674392,-7.06386 -3.024192,-11.33867 -0.280191,-3.42781 -0.196543,-7.19489 0.377878,-10.77244 0.398936,-2.4837 0.993011,-4.72406 1.764209,-6.93049 0.657133,-1.88003 1.40622,-3.62669 2.330441,-5.29029 0.02059,-0.0379 0.09968,0.002 0.125647,-0.064 0.453804,-1.13235 1.311458,-2.20994 2.016908,-3.21255 0.14846,-0.21163 0.247668,-0.40455 0.440935,-0.62976 0.438713,-0.51276 0.962945,-1.2319 1.448336,-1.7642 3.196167,-3.51087 6.931658,-6.28237 11.654544,-8.50518 -6.695338,-1.57936 -12.482833,-4.06774 -16.823162,-8.000948 -1.28455,1.096781 -2.360858,2.399465 -3.402069,3.779948 -0.334474,0.44328 -0.600861,0.93826 -1.008571,1.32316 -0.539207,0.99991 -1.240094,1.90226 -1.827384,2.89667 -0.292475,0.49592 -0.587172,1.01454 -0.881987,1.51151 -0.285573,0.48305 -0.51733,1.0177 -0.944578,1.38516 -1.772398,-3.08034 -3.685185,-6.52102 -5.60616,-9.890334 C 12.531656,97.05264 11.462367,95.41829 10.500709,93.720765 9.8435765,92.55999 9.1553244,91.245256 8.4217971,89.940818 8.1695666,89.491576 7.7627924,89.047482 7.7285143,88.74401 c -0.0617,-0.552076 0.3871199,-1.644879 0.6306931,-2.268436 1.8811996,-4.814139 5.2154146,-8.395202 8.8187066,-11.401845 -0.0078,-0.67632 -0.02375,-1.151533 -0.06259,-1.889389 -0.280191,0.03112 -0.632097,0.32219 -0.945162,0.5667 -2.078913,1.626161 -4.058383,3.568195 -5.803874,5.61552 -2.0204175,2.374897 -3.5541564,5.14756 -5.1651087,7.873427 l -0.074031,-0.09464 -0.1156212,0.03205" style="stroke-width:.11699"/>
  <path style="stroke-width:.11699" d="M 84.351562 10.498047 C 84.301254 10.505067 84.161075 10.70739 84.289062 10.6875 C 85.129052 15.555454 86.227255 20.167114 87.123047 24.982422 C 83.918691 25.230441 80.729786 25.272911 77.548828 25.423828 C 77.069286 25.446058 76.41685 25.511568 76.101562 25.423828 C 75.702629 25.313858 74.901892 24.25021 74.587891 23.912109 C 73.726845 22.982038 72.754478 22.02372 72.005859 21.265625 C 71.422079 20.674825 70.749544 20.076483 70.179688 19.566406 C 69.705056 19.142902 69.258239 18.702454 68.792969 18.304688 C 68.036044 17.656562 67.351017 17.009156 66.587891 16.416016 C 65.43203 15.518703 64.144441 14.578427 62.933594 13.832031 C 62.16848 13.360562 61.174307 12.878959 60.162109 12.447266 C 59.188752 12.033121 58.016284 11.464513 56.949219 11.501953 C 56.491671 11.518331 56.013785 11.835229 55.501953 11.880859 C 55.407309 12.037626 55.734415 12.206333 55.943359 12.257812 C 58.455134 14.722793 59.723858 18.432552 60.226562 22.90625 C 59.710636 22.540071 59.506391 21.859972 58.964844 21.519531 C 58.88494 21.258644 58.646566 21.067667 58.462891 20.888672 C 55.508894 18.003699 51.871846 15.80668 47.689453 14.210938 C 46.315991 14.706974 44.825339 15.082791 43.40625 15.533203 C 43.782958 15.996483 44.401664 16.255173 44.855469 16.542969 C 45.045109 16.663468 45.182487 16.805272 45.359375 16.919922 C 47.433608 18.271157 49.495874 19.841786 51.216797 21.455078 C 51.296818 21.531121 51.33547 21.639181 51.40625 21.707031 C 52.436932 22.708466 53.357771 23.627541 54.304688 24.669922 C 54.561948 24.951868 54.872184 25.196976 55.125 25.488281 C 55.932231 26.423031 56.644634 27.377482 57.330078 28.384766 C 53.434311 29.361633 50.083994 30.884405 47.3125 32.984375 C 44.000514 31.211977 40.095422 29.149597 36.226562 27.753906 C 34.857779 27.261378 33.436152 26.682604 31.943359 26.558594 C 31.109221 26.4884 30.206709 26.556679 29.738281 26.810547 C 29.193107 27.462181 28.569889 28.037343 27.972656 28.638672 C 28.270629 28.948695 28.647831 29.101947 28.982422 29.330078 C 29.809542 29.896309 30.628909 30.684818 31.185547 31.410156 C 32.33743 32.907628 32.989467 34.747863 33.390625 36.953125 C 29.994406 35.498939 24.42934 35.808789 20.289062 36.386719 C 19.288798 37.275843 18.323647 38.20172 17.453125 39.220703 C 17.094316 39.513178 16.695113 39.765236 16.507812 40.228516 C 21.537212 40.620433 26.415662 41.159502 30.371094 42.623047 C 30.693635 43.05708 31.691159 43.236353 31.693359 43.945312 C 31.695698 44.279905 31.288276 44.564789 31.191406 44.763672 C 31.144261 44.860771 31.106573 44.830965 31.064453 44.890625 C 30.39024 45.845264 29.762424 46.950739 29.300781 47.851562 C 28.439033 49.533879 28.065796 50.901621 27.472656 52.324219 C 22.319247 53.419246 17.099338 54.788016 13.236328 57.175781 C 11.959967 57.964294 10.5689 58.880383 10.148438 60.449219 C 10.745086 60.418801 11.340751 60.081696 12.039062 59.882812 C 14.444377 59.199591 18.262905 58.792465 20.353516 59.882812 C 18.169313 61.087809 16.242646 62.84325 14.431641 64.861328 C 13.50508 65.893179 12.557613 67.145958 11.722656 68.199219 C 11.408303 68.595113 11.12179 68.994659 10.839844 69.394531 C 10.439972 69.962283 9.8632054 70.655586 9.7695312 71.095703 C 9.5432727 72.156802 9.8760041 73.226705 9.7695312 74.121094 C 11.282212 72.204798 13.180942 70.101156 15.3125 68.703125 C 16.779554 67.741584 19.024929 66.578129 21.296875 67.505859 C 21.141512 70.229387 21.148768 73.523342 21.738281 76.011719 C 20.376517 77.042401 18.883841 78.255896 17.642578 79.412109 C 17.221531 79.805195 16.858486 80.294339 16.447266 80.736328 C 15.34288 81.919096 14.147294 83.514969 13.423828 85.208984 C 13.186105 85.765857 12.788862 86.600242 12.857422 87.160156 C 12.887137 87.409111 13.098667 87.733737 13.234375 87.980469 C 13.363766 88.212226 13.533549 88.494635 13.738281 88.671875 C 15.309457 87.578019 17.004912 86.05817 19.220703 85.460938 C 19.94955 85.264392 20.884893 84.98654 21.677734 85.460938 C 20.325329 87.897839 18.674249 91.109614 17.582031 94.027344 C 17.399292 94.516597 17.118635 95.085907 17.140625 95.414062 C 17.156536 95.661732 17.424328 96.108809 17.582031 96.421875 C 18.095032 97.435008 18.643572 98.305047 19.09375 99.257812 C 20.226213 96.774118 21.705807 94.456843 23.757812 92.957031 C 24.973338 92.068492 26.447183 91.234329 28.480469 91.255859 C 31.753849 96.179968 36.698124 99.375324 43.222656 100.95703 C 45.425578 101.49086 47.849236 101.97854 50.404297 101.96484 C 51.884221 101.957 53.323505 101.68469 54.751953 101.65039 C 59.705309 101.53164 63.846706 101.87281 67.912109 102.66016 C 71.805536 103.4124 75.428724 104.72669 78.560547 106.18555 C 79.614626 106.67691 80.664443 107.27521 81.583984 107.88672 C 85.303096 110.36106 88.793873 113.1806 91.412109 116.95703 C 93.987059 120.67264 96.052236 125.13576 96.451172 130.82031 C 96.506862 131.61467 96.451172 132.44788 96.451172 133.27734 C 96.451172 134.07053 96.526512 134.91042 96.451172 135.73438 C 96.421457 136.06885 96.301849 136.35508 96.261719 136.67773 C 96.217379 137.03455 96.264499 137.42269 96.199219 137.8125 C 96.135225 138.19752 95.973916 138.61318 95.884766 139.00977 C 95.578603 140.35867 95.297685 141.56541 94.875 142.66406 C 93.810391 145.43438 92.245541 147.95497 90.529297 149.9707 C 90.410436 150.11098 90.21038 150.21168 90.087891 150.34961 C 89.038491 151.53472 87.884694 152.62435 86.685547 153.5625 C 84.390203 155.36297 81.721437 156.69389 78.685547 157.65625 C 75.572443 158.64516 71.628745 159.02229 67.599609 158.41406 C 60.832908 157.3904 55.518031 153.83595 51.851562 149.21484 C 49.939946 146.80836 48.568155 144.16891 47.568359 141.02539 C 47.06109 139.43082 46.731001 137.6227 46.560547 135.79883 C 46.177989 131.69248 46.972686 128.10098 48.007812 125.21484 C 48.534268 123.74545 49.167251 122.37093 49.898438 121.11914 C 51.188837 118.91037 52.829095 117.03043 54.560547 115.38672 C 55.34555 114.64033 56.172091 113.96334 57.017578 113.36914 C 57.726537 112.87264 58.539435 112.31027 59.222656 111.92188 C 62.618876 109.99504 66.679386 108.77148 71.822266 108.77148 C 72.223191 108.77148 72.7603 108.90383 73.146484 108.58398 C 69.361858 107.54979 65.589526 106.66363 61.236328 106.31641 C 53.475212 105.69753 47.118914 107.62941 42.587891 110.47461 C 41.168803 111.3649 39.838672 112.36392 38.681641 113.43555 C 35.525251 116.35562 32.946246 120.10362 31.185547 124.33398 C 29.645959 128.04256 28.344223 132.53761 28.414062 137.69336 C 28.534563 146.5846 31.420651 153.10578 35.091797 158.61133 C 36.609157 160.88561 38.400011 163.07263 40.257812 164.91406 C 42.206866 166.84439 44.249103 168.64598 46.494141 170.20312 C 47.481537 170.88868 48.758351 171.53442 49.771484 172.09375 C 50.162231 172.31124 50.536364 172.47387 50.904297 172.66211 C 56.239041 175.38096 63.373503 177.82086 70.816406 178.07812 C 76.905736 178.28754 82.219195 177.28764 86.878906 175.74805 C 87.996161 175.37848 89.069917 174.86812 90.154297 174.42578 C 93.407789 173.0956 96.407174 171.35314 99.037109 169.51172 C 102.24263 167.26668 105.17374 164.85432 107.66797 162.07812 C 108.0373 161.66667 108.32071 161.20677 108.67578 160.75391 C 111.37825 157.31089 113.60324 153.38553 115.28906 148.97266 C 116.94447 144.64169 118.35355 139.36743 118.43945 133.72852 C 118.46235 132.2135 118.39205 130.70253 118.37695 129.19336 C 118.33483 124.72435 117.7735 120.83375 116.67578 117.22461 C 115.24149 112.50757 113.2966 108.33134 110.81641 104.68359 C 109.5693 102.84919 108.33276 101.03512 106.91016 99.392578 C 105.49341 97.755888 103.94901 96.263712 102.4375 94.667969 C 101.51094 93.872437 100.56681 93.076808 99.603516 92.273438 C 98.657067 91.484926 97.708708 90.64978 96.642578 89.941406 C 95.076082 88.900195 93.361805 87.887897 91.792969 86.919922 C 91.235746 86.576322 90.662123 86.299409 90.091797 85.972656 C 87.388158 84.422538 84.425355 82.809613 81.396484 81.5625 C 79.56793 80.811424 77.49914 79.856025 75.601562 79.421875 C 73.851394 79.021535 72.202025 78.712691 70.625 78.224609 C 69.077222 77.74612 67.617446 77.204875 66.150391 76.460938 C 63.516946 75.12491 59.957715 72.669562 60.732422 68.523438 C 61.036245 68.020497 61.124739 67.481083 61.363281 67.011719 C 62.071071 65.617198 63.372661 64.548059 64.763672 63.861328 C 66.757181 62.877442 69.300952 62.461424 71.947266 62.287109 C 77.303068 61.934969 83.150756 62.995107 87.763672 63.798828 C 92.472519 64.620098 97.41878 65.744222 102.05859 66.949219 C 104.81137 67.664028 107.86003 68.617512 110.5625 69.341797 C 111.17669 69.506285 111.80345 69.542527 112.39062 69.720703 C 114.094 70.238969 115.65176 70.79966 116.92578 71.546875 C 117.46733 70.4343 117.45727 68.771956 116.92578 67.894531 C 116.70233 67.524726 115.90065 66.832982 115.54102 66.632812 C 114.8344 66.242065 113.84124 66.057882 112.95703 65.751953 C 112.09481 65.453629 111.21359 65.116665 110.375 64.806641 C 106.89572 63.523261 103.40878 62.265098 100.04297 61.027344 C 98.268233 60.37337 96.635422 59.570257 94.941406 59.074219 C 94.682741 58.791103 94.029713 58.672769 93.744141 58.507812 C 93.289751 58.244585 92.601085 58.134401 92.294922 57.6875 C 93.595851 55.000239 94.897724 52.314034 96.326172 49.751953 C 103.67314 50.790824 110.68571 52.601633 116.80078 55.419922 C 117.53314 55.756854 118.21712 56.17096 118.94141 56.554688 C 121.15369 57.729266 123.04136 58.919395 124.86523 60.458984 C 127.55015 62.72742 130.9444 66.274811 129.71484 71.484375 C 131.61476 70.661936 133.31621 69.568903 134.81836 68.271484 C 136.04676 67.210385 137.24213 65.625466 137.9043 64.050781 C 138.15934 63.448282 138.27329 62.903826 138.41016 62.162109 C 138.83835 59.828159 138.42742 57.608554 137.7793 55.734375 C 137.00833 53.511565 135.84628 51.752727 134.56641 50.128906 C 133.87851 49.2585 133.30285 48.354106 132.67578 47.546875 C 127.43463 40.804741 120.61648 35.681509 113.02148 31.669922 C 109.12806 29.615577 104.87716 27.700398 100.60938 26.316406 C 100.1765 25.022497 99.734398 23.714595 99.285156 22.410156 C 98.832522 21.090509 98.437168 19.748185 97.962891 18.441406 C 97.496452 17.155686 96.944753 15.917412 96.451172 14.662109 C 95.959814 13.412656 95.540618 12.116205 94.75 11.070312 C 94.005943 10.970873 92.692673 11.019514 91.662109 11.007812 C 91.780034 13.948943 91.951986 17.365839 92.041016 20.269531 C 90.060375 17.12601 88.363543 13.698903 86.435547 10.503906 L 84.355469 10.503906 L 84.351562 10.498047 z M 68.794922 23.230469 C 69.489726 23.122838 69.867102 23.704311 70.371094 24.175781 C 71.383058 25.12106 72.215694 25.785132 73.205078 26.695312 C 73.364068 26.841551 73.611274 27.009021 73.646484 27.261719 C 69.395068 26.55393 65.284569 27.872223 62.623047 29.466797 C 61.921107 29.887961 61.344018 30.439263 60.669922 30.789062 C 60.173884 28.744078 59.338446 27.036677 58.904297 24.929688 C 62.194055 24.447688 65.702876 23.708958 68.794922 23.230469 z M 89.525391 24.111328 L 97.525391 24.111328 C 97.878233 25.817042 98.413209 27.341905 98.787109 29.025391 C 97.577432 28.580829 96.294704 28.187463 95.007812 27.703125 C 94.600219 27.549868 94.2158 27.290969 93.810547 27.261719 C 93.39067 27.231302 93.009994 27.446992 92.613281 27.513672 C 91.292464 27.737123 89.858284 27.922925 88.517578 28.082031 C 88.776711 27.029121 88.970054 25.576396 89.210938 24.552734 C 89.239717 24.431064 89.39834 24.015398 89.525391 24.111328 z M 82.214844 30.666016 C 90.094669 30.734345 97.648561 32.099757 103.38867 34.443359 C 103.84107 35.964229 104.21497 37.489162 103.70312 39.167969 C 103.59338 39.530638 103.33464 40.01125 103.07422 40.427734 C 102.09736 41.99189 100.48811 43.030541 98.539062 43.767578 C 98.004301 43.96997 97.362088 44.264484 97.025391 44.271484 C 96.655469 44.278504 96.092179 44.000209 95.578125 43.892578 C 94.58137 43.683166 93.590174 43.485279 92.490234 43.326172 C 86.184473 42.418333 79.060159 42.180806 71.888672 42.380859 C 71.291321 42.398409 70.662831 42.531099 70.1875 42.443359 C 69.549905 42.326369 68.692742 41.614118 68.234375 41.183594 C 67.994429 40.960143 67.821081 40.68873 67.605469 40.492188 C 67.541475 40.433692 67.511946 40.324851 67.416016 40.238281 C 67.182855 40.027699 66.687073 38.987136 66.595703 38.539062 C 66.102005 36.103333 67.819271 33.960729 69.054688 32.679688 C 69.42344 32.29713 69.895961 31.798225 70.1875 31.671875 C 70.673009 31.460124 71.50484 31.473242 72.265625 31.357422 C 72.948847 31.254471 73.635465 31.110819 74.28125 31.042969 C 76.925224 30.765995 79.588235 30.643239 82.214844 30.666016 z M 40.015625 32.869141 L 40.207031 32.869141 C 40.776772 33.271587 41.376898 33.680339 41.96875 34.066406 C 42.563878 34.453643 43.212959 34.804397 43.669922 35.326172 C 39.233661 37.084532 36.572296 40.618378 36.173828 46.414062 C 35.85386 46.10989 35.815223 45.61261 35.669922 45.214844 C 35.253788 44.071851 34.767452 42.819468 34.345703 41.625 C 36.1298 38.599638 38.20813 35.869935 40.015625 32.869141 z M 84.193359 33.478516 C 83.714081 33.480055 83.228146 33.50294 82.734375 33.552734 C 78.885404 33.94231 77.074109 36.154759 72.84375 36.199219 C 72.993263 36.339607 73.215016 36.495065 73.410156 36.578125 C 73.634075 36.675227 73.885447 36.731808 74.103516 36.830078 C 74.533338 37.023111 74.98625 37.233193 75.425781 37.458984 C 76.523148 38.025215 77.473424 38.771858 78.576172 39.224609 C 80.773244 40.124262 83.531847 40.961797 86.199219 41.240234 C 88.597514 41.489422 90.661592 41.139835 92.4375 40.671875 C 93.282168 40.450764 94.170975 40.307258 94.957031 39.978516 C 96.248601 39.693061 97.529081 39.29661 98.673828 38.908203 C 99.063288 38.777174 99.534757 38.71783 99.806641 38.404297 C 97.738258 38.233491 95.93627 37.55726 94.513672 36.767578 C 94.017283 36.491481 93.602716 36.142818 93.128906 35.822266 C 92.200006 35.195199 91.030822 34.828634 89.851562 34.435547 C 88.196666 33.885182 86.270231 33.471847 84.193359 33.478516 z M 63.390625 33.498047 C 63.17256 35.196742 62.829827 36.920913 63.074219 38.664062 C 63.277782 40.10304 63.892764 41.544875 64.650391 42.443359 C 64.956554 42.808367 65.417527 42.983886 65.595703 43.388672 C 62.242769 43.314968 59.523236 44.131696 57.089844 45.089844 C 54.986364 45.918134 53.06374 46.911228 51.484375 48.240234 C 51.454659 47.414285 51.79118 46.583415 52.050781 45.783203 C 53.281515 41.971669 55.310954 38.586607 58.097656 36.207031 C 58.682606 35.707483 59.250281 35.290721 59.925781 34.884766 C 60.785658 34.37118 61.47669 34.022875 62.570312 33.689453 C 62.83857 33.60639 62.977066 33.452417 63.390625 33.498047 z M 85.427734 35.458984 C 86.236473 35.440009 87.208919 35.50012 87.962891 35.570312 C 89.218193 35.688472 90.639916 36.05284 91.492188 36.578125 C 91.867843 36.810935 92.158444 37.140276 92.183594 37.396484 L 92.181641 37.396484 C 92.290442 38.503209 90.946475 38.536779 90.292969 39.035156 C 87.508607 39.594368 84.405704 39.845897 81.537109 39.035156 C 80.614409 38.773098 79.494471 38.259016 79.457031 37.583984 C 79.411405 36.768564 80.666567 36.252718 81.410156 36.011719 C 82.491143 35.661918 83.657052 35.631822 84.6875 35.507812 C 84.906271 35.481489 85.158155 35.46531 85.427734 35.458984 z M 107.35938 35.703125 C 109.72843 35.863401 111.69054 36.676119 113.03125 38.033203 C 113.12812 38.131474 113.194 38.260699 113.2832 38.349609 C 113.95262 39.023471 114.55657 40.052975 114.98242 41.121094 C 115.40979 42.190382 115.85073 43.60067 115.80273 45.154297 C 113.98353 46.027042 111.45452 47.039389 108.81055 47.232422 C 105.27628 47.48863 102.11552 46.771165 99.738281 45.65625 C 100.58178 45.114586 101.58578 44.778725 102.50977 44.208984 C 104.20144 43.166603 105.66098 41.762307 106.54297 39.796875 C 107.03328 38.703018 107.41656 37.280079 107.29688 35.892578 C 107.27957 35.791964 107.35636 35.785015 107.35938 35.703125 z M 45.232422 37.509766 C 45.94777 37.572282 46.428121 37.860077 47.009766 38.160156 C 47.097977 38.491237 47.400219 38.662148 47.576172 38.916016 C 48.276708 39.934999 48.65029 41.5888 48.521484 43.515625 C 48.350679 46.076536 47.121123 48.682452 45.75 50.320312 C 45.344162 50.802312 45.092787 51.10967 44.615234 51.515625 C 43.939032 52.092386 42.762937 52.851431 41.402344 52.775391 C 38.802826 52.630323 37.833083 49.54046 38.0625 46.666016 C 38.256704 44.233794 39.398696 41.774539 40.708984 40.113281 C 41.324351 39.330618 41.873713 38.800695 42.662109 38.287109 C 43.099652 38.001653 43.806553 37.60729 44.425781 37.53125 C 44.729078 37.493813 44.993972 37.488927 45.232422 37.509766 z M 120.77539 40.683594 C 124.04526 43.112307 127.09138 45.773982 129.84766 48.873047 C 131.19539 50.389237 132.46308 51.96373 133.50195 53.849609 C 134.58177 55.813871 135.47728 57.860647 135.45508 60.464844 C 135.43403 62.832722 134.61683 64.431037 133.24805 65.693359 C 129.82024 57.837481 123.57703 52.807839 114.60156 50.507812 C 114.71808 50.335836 114.93958 50.322539 115.10547 50.255859 C 115.28142 50.182155 115.43147 50.083456 115.60742 50.003906 C 116.59131 49.554665 117.44867 49.010523 118.25391 48.302734 C 118.78376 47.616003 119.26153 46.874578 119.76562 46.162109 C 120.33455 44.63071 120.83284 43.027607 120.77344 40.869141 L 120.77539 40.873047 L 120.77539 40.683594 z M 44.115234 41.761719 C 42.742941 43.349273 41.349816 44.916926 40.083984 46.613281 C 40.994167 47.152605 41.567659 48.027756 42.541016 48.503906 C 43.860663 46.904652 45.251737 45.374932 46.511719 43.714844 L 46.509766 43.714844 C 45.706045 43.069059 44.953818 42.372407 44.115234 41.761719 z M 74.410156 46.712891 C 80.407356 46.676806 86.505875 47.296133 91.605469 48.240234 C 90.019319 51.248047 89.577288 55.417999 89.335938 59.832031 C 89.367057 59.993478 89.167811 59.888191 88.958984 59.832031 C 79.517891 57.312067 66.666078 57.802222 55.828125 58.886719 C 55.414097 58.927669 55.034357 58.901249 54.630859 58.949219 C 53.424692 59.090777 51.895858 59.329795 50.599609 59.390625 C 58.344347 56.16989 66.845899 53.712942 75.986328 51.892578 C 75.278538 51.59074 74.403825 51.567105 73.591797 51.515625 C 71.852156 51.407994 70.104767 51.393956 68.300781 51.515625 C 67.421017 51.57646 66.550342 51.588088 65.78125 51.705078 C 65.538028 51.741345 65.324094 51.857478 65.087891 51.892578 C 64.644499 51.959258 64.191856 51.880991 63.763672 51.957031 C 63.592282 51.987448 63.419692 52.118404 63.259766 52.146484 C 57.638397 53.140899 52.455863 54.695646 47.830078 56.744141 C 48.714523 55.144888 50.059824 53.907854 51.482422 52.775391 C 54.322939 50.513974 57.834769 49.080293 62.001953 48.050781 C 63.493575 47.682263 65.105686 47.411417 66.853516 47.232422 C 67.406234 47.175164 67.941431 47.028614 68.488281 46.980469 C 70.424466 46.810833 72.41109 46.724919 74.410156 46.712891 z M 33.841797 49.628906 C 33.895287 49.617206 33.901097 49.652796 33.904297 49.691406 C 34.770023 52.543622 35.963525 55.066967 37.496094 57.25 C 37.835248 57.515567 38.037069 57.87827 38.314453 58.195312 C 40.174594 60.316342 42.688084 62.016868 45.810547 62.984375 C 47.573586 63.529548 49.773939 63.923734 51.921875 63.865234 C 54.068642 63.806739 56.178237 63.490267 58.095703 63.046875 C 59.249224 71.102806 55.687151 75.338442 50.158203 77.285156 C 47.937733 78.066064 45.214973 78.482422 42.283203 78.482422 C 40.493256 78.482422 38.491465 78.290166 36.675781 78.228516 C 33.266692 78.111526 30.576015 77.138814 28.863281 75.140625 C 28.656209 74.899742 28.355549 74.617899 28.171875 74.322266 C 27.022566 72.478503 26.596903 69.525561 27.099609 66.386719 C 27.813143 61.927718 29.524932 58.059136 31.195312 54.478516 L 31.195312 54.476562 C 31.977818 52.801865 32.903014 51.24286 33.841797 49.628906 z M 28.232422 54.980469 C 28.462308 55.112668 28.149892 55.342325 28.107422 55.421875 C 26.715241 58.012034 25.663419 61.428324 25.398438 65.248047 C 24.347867 65.393117 23.027306 65.27272 21.871094 65.3125 C 21.961176 64.082935 22.286602 62.851005 22.564453 61.595703 C 22.917295 60.004639 23.197547 58.45386 23.572266 56.806641 C 25.038947 56.110964 26.726138 55.636544 28.232422 54.980469 z M 40.410156 64.744141 C 40.305607 64.740601 40.195802 64.742197 40.078125 64.748047 C 38.124392 64.846319 36.741102 65.985754 35.982422 67.265625 C 35.769968 67.624433 35.679145 67.815359 35.542969 68.212891 C 35.25412 69.059899 35.250584 70.417784 35.480469 71.234375 C 35.552184 71.492572 35.606319 71.8587 35.667969 71.992188 C 35.689963 72.039214 35.823142 72.064656 35.857422 72.117188 C 35.967158 72.289981 36.032985 72.388697 36.109375 72.496094 C 36.198405 72.619401 36.204188 72.823318 36.298828 72.9375 C 36.342231 72.990027 36.438358 73.00997 36.486328 73.0625 C 37.16487 73.814746 38.011527 74.450148 39.007812 74.699219 C 40.515814 75.077214 41.998624 74.633178 42.849609 74.132812 C 43.550262 73.721243 43.99713 73.3399 44.425781 72.748047 C 44.840277 72.174796 45.218431 71.330698 45.306641 70.541016 C 45.629533 67.629135 44.167237 66.287062 42.345703 65.125 C 41.593311 65.001137 41.142003 64.768915 40.410156 64.744141 z M 57.648438 77.808594 C 60.286562 79.288517 62.790838 80.898141 64.074219 83.730469 C 64.316505 84.710845 64.301413 85.896424 64.074219 86.878906 C 62.375524 90.683421 58.37226 93.041102 54.435547 94.943359 C 53.786252 95.257828 53.107706 95.601696 52.419922 95.888672 C 51.732021 96.176585 50.992963 96.553072 50.341797 96.707031 C 49.567323 96.89117 48.730982 96.870506 47.947266 96.960938 C 39.561423 97.920254 33.801948 94.345029 31.253906 88.392578 C 30.482006 86.594442 29.980352 84.480276 29.865234 82.283203 C 32.774775 83.105994 35.772175 83.852671 39.189453 84.046875 C 47.265272 84.505475 53.640827 81.832484 57.462891 77.935547 L 57.458984 77.933594 C 57.504727 77.875567 57.574377 77.839714 57.648438 77.808594 z M 25.150391 78.3125 L 25.339844 78.3125 C 25.419748 78.694121 25.240381 79.067984 25.212891 79.447266 C 24.912227 83.579352 26.838582 86.138431 28.867188 88.078125 C 28.672985 88.297481 28.334788 88.355132 28.046875 88.457031 C 27.480293 88.655797 26.902891 88.805016 26.347656 89.023438 C 25.531066 87.56223 24.961878 85.881703 24.269531 84.298828 C 23.57695 82.717123 22.817708 81.183326 22.316406 79.636719 C 22.41924 79.345176 22.793018 79.413636 23.007812 79.322266 C 23.233954 79.223995 23.430781 79.096842 23.638672 79.007812 C 24.1553 78.786119 24.666052 78.561184 25.150391 78.314453 L 25.150391 78.3125 z M 69.804688 83.591797 C 70.378684 83.596316 70.967468 83.636689 71.330078 83.664062 C 74.295775 83.888683 76.978302 84.825515 78.007812 86.75 C 78.376683 87.441411 78.591739 88.330525 78.511719 89.521484 C 78.413447 90.993218 77.759869 92.346504 77.126953 93.492188 C 76.791075 94.099365 76.55124 94.733409 76.244141 95.318359 C 75.938914 95.898161 75.608914 96.403677 75.173828 96.892578 C 74.536233 97.610312 73.886896 98.191179 72.904297 98.658203 C 71.517965 99.318611 69.394298 99.731483 67.173828 99.476562 C 65.547184 99.291563 64.084836 98.837354 62.765625 98.341797 L 62.763672 98.341797 C 61.483242 97.861196 60.248473 97.395225 58.984375 96.640625 C 59.419929 96.184598 59.990229 95.891656 60.496094 95.507812 C 60.9747 95.14304 61.474663 94.76742 61.945312 94.373047 C 62.876553 93.593893 63.715865 92.660261 64.529297 91.726562 C 64.941102 91.252989 65.358079 90.791128 65.724609 90.279297 C 66.944814 88.579432 68.229781 86.457606 68.306641 83.789062 C 68.295171 83.736413 68.331701 83.729862 68.369141 83.726562 C 68.67156 83.618054 69.230689 83.587278 69.804688 83.591797 z M 48.21875 85.511719 C 48.010167 85.513295 47.795821 85.529816 47.576172 85.5625 L 47.574219 85.5625 C 45.987835 85.79882 45.302469 86.468304 44.613281 87.453125 C 44.197382 88.046265 43.853422 88.772589 43.794922 89.658203 C 43.647515 91.845916 45.060816 93.276525 46.376953 93.878906 C 46.953714 94.141666 47.812732 94.401274 48.644531 94.320312 C 50.508181 94.140148 52.371661 92.66963 52.615234 90.414062 C 52.76697 89.003163 52.21074 87.767969 51.607422 87.074219 C 50.857078 86.210452 49.678829 85.500684 48.21875 85.511719 z M 82.289062 87.697266 C 84.800838 88.241269 87.232368 89.304789 89.283203 90.40625 C 89.535433 90.542426 89.844762 90.680279 90.166016 90.845703 C 91.039932 91.299625 92.013989 91.990237 92.873047 92.546875 C 93.414711 92.898781 93.952012 93.202782 94.449219 93.554688 C 96.882611 95.27678 99.23154 97.377764 101.25195 99.476562 L 101.25391 99.478516 C 102.94442 101.23687 104.56429 103.03344 105.85352 105.02344 C 104.48591 104.03288 102.46206 103.0147 100.12109 102.88086 C 98.257452 102.77475 96.622431 103.18038 95.332031 103.82617 C 96.243734 105.87232 96.884919 108.92081 96.466797 111.76367 C 96.250131 113.23774 95.686924 114.59139 95.207031 115.66992 C 94.623367 114.75155 94.104497 113.83836 93.505859 112.96094 C 92.920909 112.09989 92.275256 111.30271 91.617188 110.50391 C 91.292775 110.1086 90.898664 109.75977 90.546875 109.36914 C 90.334304 109.13375 90.125401 108.80944 89.853516 108.61523 C 89.730092 108.52609 89.562909 108.435 89.412109 108.29883 C 88.645824 107.60742 87.900142 106.89553 87.082031 106.2832 C 83.743137 103.78546 79.808189 101.86908 75.171875 100.67578 C 75.435571 100.31019 75.883109 100.21742 76.244141 99.984375 C 79.564317 97.832929 83.03859 93.705802 82.226562 87.886719 C 82.209132 87.784819 82.285764 87.778226 82.289062 87.697266 z M 70.304688 89.478516 C 70.08852 89.474622 69.864276 89.4899 69.628906 89.527344 L 69.626953 89.529297 C 68.854351 89.652721 68.446639 89.921902 68.052734 90.285156 C 67.777222 90.538791 67.452965 90.87868 67.359375 91.230469 C 67.340072 91.302279 67.247512 91.257759 67.232422 91.292969 C 66.969662 91.888448 66.985402 92.680799 67.107422 93.246094 C 67.219382 93.769273 67.274144 93.873779 67.484375 94.191406 C 67.84564 94.733655 68.250471 95.182716 68.806641 95.449219 C 70.906612 96.456503 73.046802 94.718889 73.28125 93.181641 C 73.459425 92.01642 72.981418 90.980744 72.525391 90.472656 C 71.994037 89.881133 71.24141 89.495387 70.304688 89.478516 z M 100.99609 107.85547 C 102.24554 107.91852 103.74306 108.45194 104.83984 108.86328 C 105.9723 109.28959 107.01399 109.70091 107.98828 110.375 C 108.55674 110.76774 109.36419 111.38328 109.62695 111.82422 C 109.68295 111.91793 109.62765 112.0569 109.68945 112.20312 C 109.76936 112.39732 109.99831 112.68113 110.13086 112.95898 C 111.28672 115.39822 112.13837 118.30423 112.83984 121.27344 C 113.68462 124.8545 114.25086 128.77559 114.41406 132.36133 C 114.45056 133.1592 114.43996 133.90191 114.47656 134.56641 C 114.04791 134.22352 113.87671 133.68741 113.5957 133.24414 C 113.36804 132.88638 113.08563 132.507 112.83984 132.10938 C 111.7413 130.34164 110.56528 128.41135 109.4375 126.56641 C 109.16327 126.11694 108.82658 125.69868 108.55469 125.24219 C 108.291 124.80102 108.14755 124.2627 107.73633 123.91992 C 106.73841 129.3272 103.79545 132.78752 100.17578 135.57422 C 100.46825 131.51935 99.768089 127.66846 98.728516 124.48633 C 98.295653 123.16434 97.713463 121.72208 96.964844 120.45508 C 96.724079 120.04643 96.255454 119.49319 96.271484 119.25781 C 96.285171 119.05542 96.610805 118.78586 96.902344 118.43945 C 97.118073 118.18266 97.366762 117.90973 97.53125 117.68359 C 97.959901 117.09513 98.331081 116.41986 98.601562 115.91797 C 99.152001 114.89899 99.973644 113.1936 100.30273 111.95117 C 100.4878 111.25859 100.5517 110.62044 100.67969 109.99805 C 100.80171 109.40375 100.96419 108.81495 100.99609 108.04492 L 100.99609 107.85547 z M 58.169922 108.29883 C 58.021462 108.51818 57.749296 108.63049 57.539062 108.74023 C 57.296776 108.86728 57.076407 108.98241 56.845703 109.11719 C 55.579871 109.85305 54.255024 110.69959 53.066406 111.63867 C 52.279063 112.25989 51.608336 113.02846 50.923828 113.71484 C 50.569582 114.07131 50.180269 114.41005 49.853516 114.78711 C 49.527699 115.16183 49.320827 115.62289 48.908203 115.91992 C 48.709437 116.33032 48.517937 116.74991 48.152344 116.99219 C 47.340433 115.00699 44.880825 114.34738 42.546875 114.09375 C 42.307045 114.00004 42.667175 113.84484 42.671875 113.83984 C 43.336378 113.15838 44.238612 112.56528 45.128906 112.01367 C 45.638042 111.69949 46.100661 111.34665 46.640625 111.07031 L 46.642578 111.07031 C 49.757816 109.47608 53.796375 108.12887 58.169922 108.29883 z M 47.580078 111.76367 C 47.541118 111.76697 47.506228 111.77267 47.517578 111.82617 C 46.64565 112.01803 46.228955 113.3215 46.697266 114.09375 C 46.993251 114.58136 47.856802 114.88593 48.460938 114.72461 C 49.075487 114.56199 49.626913 113.79803 49.533203 113.02344 C 49.460084 112.4124 49.088353 112.15675 48.460938 111.76367 L 47.580078 111.76367 z M 42.035156 116.39258 C 44.103781 116.4478 45.351391 117.39651 45.947266 118.94531 C 46.091164 119.31745 46.278762 119.87552 46.263672 120.14062 C 46.237583 120.606 45.792828 121.16847 45.570312 121.7168 L 45.570312 121.71875 C 44.915402 123.33789 44.404892 124.93518 43.808594 126.56836 C 43.311972 126.09771 42.838251 125.60441 42.357422 125.11914 C 42.170121 125.01349 41.896916 124.99071 41.853516 124.74023 C 40.509301 124.08392 38.572389 123.33645 36.5625 123.48047 C 35.659338 123.54575 34.806653 123.75692 33.980469 123.92188 C 34.181107 123.13218 34.699164 122.49585 35.175781 121.84375 C 36.293035 120.31469 37.584064 118.95847 39.019531 117.49609 C 39.316569 117.19309 39.501166 116.80934 39.775391 116.67773 C 40.039437 116.54986 40.655667 116.46558 41.097656 116.42578 C 41.427129 116.39639 41.739638 116.38469 42.035156 116.39258 z M 40.996094 118.88086 C 40.962439 118.88116 40.927837 118.88248 40.894531 118.88477 C 38.590998 119.04154 38.512828 123.22125 41.714844 122.60156 C 42.217199 122.20929 42.777219 121.90803 42.912109 121.27734 C 43.223778 119.80853 42.0394 118.87159 40.996094 118.88086 z M 37.001953 126.69141 C 39.734839 126.91018 41.691357 128.59628 43.050781 130.09375 C 42.582353 131.86615 42.556911 134.41729 42.925781 136.33008 C 39.984652 135.41896 36.329411 135.79327 33.851562 136.89648 C 32.946061 137.2987 32.231352 137.95495 31.458984 138.3457 C 31.377091 134.00537 32.148617 130.51836 33.412109 127.51172 C 34.374936 126.94455 35.688938 126.58818 37.003906 126.69336 L 37.001953 126.69141 z M 38.039062 129.48828 C 37.843505 129.48184 37.638342 129.4983 37.431641 129.53906 C 36.296614 129.76193 35.548492 130.62234 35.416016 131.67969 C 35.34746 132.22732 35.523037 133.18226 35.794922 133.25586 C 35.909221 133.28604 36.343078 133.99752 36.361328 134.01172 C 36.892463 134.43487 37.880116 134.5705 38.503906 134.45117 C 40.199208 134.12944 40.916799 131.85483 40.015625 130.54688 C 39.611644 129.96019 38.889061 129.51627 38.039062 129.48828 z M 108.16992 132.44727 C 108.2186 132.42184 108.26376 132.41866 108.25391 132.48242 C 109.5057 133.66636 110.52772 135.13829 111.4668 136.76562 C 112.40997 138.39998 113.16276 140.20122 113.29297 142.31055 C 113.36515 143.48747 113.04735 144.67907 112.72656 145.77539 C 112.43034 146.78618 112.11397 147.85331 111.78125 148.79883 C 111.06995 150.82626 110.12453 152.60506 109.26172 154.21484 C 106.38611 159.59872 102.74814 163.57543 98.173828 167.07227 C 97.430941 167.63943 96.644898 168.20098 95.84375 168.71094 C 91.901187 171.22271 87.163126 173.52307 81.980469 174.69531 C 79.263961 173.34759 76.765288 171.51562 75.177734 168.96289 L 75.177734 168.95703 C 74.179341 167.35193 73.234393 165.06845 73.476562 162.34375 C 82.206356 161.21597 88.704175 157.63468 93.259766 152.26367 C 93.705498 151.73838 94.177327 151.18955 94.583984 150.62695 C 95.000819 150.04901 95.320084 149.42496 95.716797 148.79883 C 95.915563 148.48623 96.163397 148.21863 96.347656 147.91797 C 97.627527 145.81449 98.611127 143.27625 99.371094 140.54688 C 99.888891 140.40391 100.33138 140.0641 100.75781 139.78906 C 103.62289 137.94764 105.9329 135.22867 108.06445 132.54492 C 108.06785 132.51977 108.12125 132.47269 108.16992 132.44727 z M 39.873047 138.66016 C 41.01688 138.63584 42.196212 138.73654 43.365234 138.98047 C 43.906898 141.39865 44.708545 143.55884 45.443359 145.78516 C 43.174923 146.60292 41.6122 148.23697 40.277344 150.00586 C 38.948337 151.76539 37.883005 153.87166 37.001953 156.05469 C 36.113999 154.962 35.470972 153.70238 34.796875 152.33594 C 34.384954 151.49712 33.92692 150.66831 33.537109 149.68945 C 33.387713 149.31462 33.214447 148.97374 33.095703 148.61914 C 33.059093 148.51175 33.078943 148.36681 33.033203 148.24023 C 32.381335 146.40231 31.766638 144.49832 31.773438 141.87891 C 33.329112 139.9434 36.441547 138.73312 39.873047 138.66016 z M 106.27539 139.54492 C 106.0526 139.55044 105.82313 139.5723 105.58984 139.61133 C 103.52895 140.13077 101.99451 141.80027 102.37695 144.27344 C 102.42632 144.58463 102.46135 144.96465 102.56641 145.21875 C 102.57237 145.23525 102.67966 145.20695 102.69336 145.21875 C 102.72216 145.24438 102.67516 145.3734 102.69336 145.4082 C 102.98454 145.9591 103.57243 146.66387 103.95312 146.91797 C 104.37923 147.20448 104.99325 147.50682 105.46484 147.61328 C 108.1989 148.22865 111.13598 145.85912 110.44141 142.69922 C 110.05549 140.94253 108.42902 139.49158 106.27539 139.54492 z M 38.013672 141.79297 C 37.845427 141.78827 37.671819 141.79484 37.494141 141.81641 C 36.228309 141.96967 34.967076 143.13321 34.785156 144.52539 C 34.567555 146.20771 35.789845 147.73101 37.179688 148.05273 C 38.65493 148.39434 39.723044 147.58387 40.392578 146.98242 C 41.93904 144.77021 40.53734 141.86345 38.013672 141.79297 z M 46.626953 148.55273 C 47.062039 148.40883 47.326009 149.43229 47.507812 149.74805 C 47.782972 150.22782 48.121637 150.64828 48.328125 150.94531 L 48.328125 150.94141 C 50.009271 153.36662 52.169172 155.1989 54.501953 156.86133 C 52.99793 160.61203 52.532628 165.39657 52.423828 170.53711 C 51.000059 169.98258 49.795604 169.11034 48.580078 168.26953 C 46.160725 166.59541 44.053224 164.91952 42.029297 162.59961 C 41.567655 162.07081 41.025117 161.39145 40.515625 160.64844 C 40.304458 160.33959 39.602252 159.34284 39.570312 158.94531 C 39.536035 158.51596 39.83448 157.81093 40.011719 157.18164 C 40.507757 155.41743 41.046328 153.9282 41.902344 152.58398 C 42.641721 151.42344 43.458373 150.45538 44.484375 149.68359 C 45.052947 149.25763 45.824987 148.81818 46.626953 148.55273 z M 47.023438 155.35547 C 46.820757 155.35235 46.624525 155.3729 46.441406 155.42773 L 46.441406 155.42969 C 44.5939 155.75726 43.03104 157.59168 43.669922 159.83789 C 43.695075 159.92569 43.760642 159.84869 43.794922 159.90039 C 43.832832 159.95795 43.768832 160.0889 43.794922 160.1543 C 43.916007 160.45952 43.942664 160.5031 44.109375 160.7207 C 44.268014 160.92765 44.467044 161.20934 44.613281 161.34961 C 44.697865 161.43185 44.855191 161.4326 44.992188 161.53906 C 45.106487 161.62902 45.147271 161.77862 45.244141 161.85352 C 45.516377 162.06738 46.318729 162.26012 46.630859 162.29492 C 47.965715 162.44478 48.803706 161.85931 49.402344 161.28711 C 49.654574 161.04587 49.89341 160.87765 49.96875 160.5957 C 49.990277 160.5147 50.071953 160.57475 50.095703 160.53125 C 50.954526 158.9203 50.206955 156.93508 49.212891 156.12305 C 48.878299 155.84939 47.901719 155.36898 47.023438 155.35547 z M 56.958984 158.50586 C 60.601571 160.38793 64.362086 162.14833 69.685547 162.34766 C 69.405941 165.66316 70.407758 168.27762 71.763672 170.28516 C 72.768617 171.77328 74.010579 173.00381 75.417969 174.12891 C 75.616852 174.2879 75.789235 174.49476 75.984375 174.63281 C 76.405773 174.9275 76.947922 175.07925 77.244141 175.51562 C 69.195229 176.17195 61.783439 174.7804 56.138672 172.42773 C 54.837743 168.24066 55.470871 161.9711 56.958984 158.50586 z M 83.515625 162.04297 C 83.323928 162.04876 83.123758 162.06756 82.917969 162.09766 C 81.26223 162.34162 79.874896 163.52557 79.390625 164.93359 C 78.924537 166.2895 79.321486 167.84404 79.832031 168.71094 C 80.494194 169.83392 81.918303 170.89332 83.736328 170.85352 C 86.465705 170.79269 88.352071 168.28702 87.958984 165.6875 C 87.813917 164.72468 87.261716 163.91266 86.634766 163.29297 C 85.868042 162.53536 84.861757 162.00227 83.515625 162.04297 z M 63.441406 164.34961 C 63.341376 164.35086 63.237777 164.35738 63.134766 164.36719 C 61.590294 164.51648 60.429642 165.59738 60.111328 166.94922 C 59.491281 169.57565 62.15286 172.01383 64.773438 171.04492 C 65.22654 170.87903 65.695074 170.42909 65.970703 170.16211 C 66.612744 169.54207 67.138442 168.37202 66.978516 167.26562 C 66.849827 166.37767 66.02213 165.27459 65.339844 164.87109 C 64.776829 164.53963 64.146054 164.34078 63.441406 164.34961 z"/>
  <path fill-rule="evenodd" fill="#231f20" d="m 92.183724,37.39745 c -0.02515,-0.256208 -0.316692,-0.58729 -0.692347,-0.8201 -0.852272,-0.525285 -2.273116,-0.889124 -3.528418,-1.007284 -1.005295,-0.09359 -2.400635,-0.168465 -3.27572,-0.06317 -1.030448,0.124009 -2.195903,0.154426 -3.27689,0.504227 -0.743589,0.240999 -1.998189,0.758095 -1.952563,1.573515 0.03744,0.675032 1.156212,1.188618 2.078912,1.450676 2.868595,0.810741 5.97117,0.559212 8.755532,0 0.653506,-0.498377 1.998189,-0.531135 1.889388,-1.63786 z" style="fill:#ccc;stroke-width:.11699"/>
  <path fill-rule="evenodd" fill="#231f20" d="m 63.392485,115.54677 c -2.303533,1.07853 -4.243227,2.3749 -5.858859,3.96947 -3.261681,3.2184 -5.758248,7.6219 -5.984039,13.67613 -0.14846,3.95894 0.968911,7.45343 2.330441,9.95351 0.251412,0.46211 0.557574,1.10006 0.881988,1.38516 0.03112,0.027 -0.02281,0.15455 0,0.18964 0.658068,0.99079 1.445996,1.90343 2.205261,2.70832 3.116614,3.30614 7.452263,5.88577 13.360258,6.29991 3.135332,0.21983 6.370106,-0.45883 8.883051,-1.51151 3.001963,-1.25881 5.628389,-3.2453 7.495549,-5.54415 1.216696,-1.49865 2.183034,-2.93879 3.024192,-4.85041 0.508087,-1.15715 1.03501,-2.46147 1.323157,-3.9063 0.293411,-1.47407 0.553011,-3.19148 0.441052,-4.78723 -0.267322,-3.8127 -1.330176,-6.91644 -2.771493,-9.3861 -2.165485,-3.70742 -4.996643,-6.2695 -9.00823,-8.12847 -2.253228,-1.04191 -4.849236,-1.75953 -8.000946,-1.76421 h -0.06306 c -3.27689,0.005 -5.943092,0.62063 -8.253644,1.70104 z m 6.930488,-3.52842 c 8.41275,-0.40127 14.588653,3.49917 18.332333,8.25365 0.225322,0.2865 0.436489,0.63151 0.692346,1.00763 0.03568,0.0525 0.102835,-0.0251 0.125648,0.0626 0.05943,0.22076 0.404434,0.61607 0.568103,0.88199 0.285573,0.46749 0.576761,0.99804 0.881988,1.51268 0.02059,0.0338 -0.02972,0.16215 0,0.18824 0.373315,0.32768 0.729783,1.39803 0.944577,1.95256 0.712001,1.83557 1.333686,4.25259 1.448336,6.67779 0.337282,7.06853 -2.326931,12.24885 -5.795684,16.00423 -2.57378,2.7867 -5.900976,5.05163 -10.141864,6.23674 -1.406219,0.39168 -2.993774,0.69737 -4.662051,0.75458 -6.712886,0.23164 -12.272251,-2.17952 -16.004232,-5.73134 -3.838442,-3.65477 -6.457848,-8.09805 -6.992492,-14.79923 -0.4159,-5.20489 1.319647,-9.8061 3.338894,-12.9157 3.108425,-4.78606 7.827801,-8.58005 14.682245,-9.82716 0.866896,-0.1577 1.715074,-0.21023 2.583139,-0.25223" style="stroke-width:.11699"/>
  <path d="m 5.1487795,86.790628 c 0.00228,-0.042 0.011424,-0.08447 0.020567,-0.126583" stroke="#231f20" stroke-linecap="round" stroke-width="0.853947" fill="none"/>
</svg>
